<svg width="24" height="24" viewBox="0 0 24 24" fill="none" xmlns="http://www.w3.org/2000/svg">
<path d="M23.4089 13.4238L13.4171 23.4156C13.2271 23.5975 13.003 23.7401 12.7577 23.8352C12.2711 24.0351 11.7254 24.0351 11.2389 23.8352C10.9936 23.7401 10.7695 23.5975 10.5795 23.4156L0.587699 13.4238C0.401376 13.2375 0.253576 13.0163 0.152739 12.7729C0.051901 12.5294 0 12.2685 0 12.005C0 11.4728 0.211402 10.9625 0.587699 10.5862C0.963996 10.2099 1.47436 9.99846 2.00653 9.99846C2.53869 9.99846 3.04906 10.2099 3.42536 10.5862L9.99994 17.1807V2.01322C9.99994 1.48322 10.2105 0.974934 10.5852 0.60017C10.96 0.225406 11.4683 0.0148678 11.9983 0.0148678C12.5283 0.0148678 13.0366 0.225406 13.4113 0.60017C13.7861 0.974934 13.9966 1.48322 13.9966 2.01322V17.1807L20.5712 10.5862C20.757 10.3989 20.978 10.2502 21.2215 10.1487C21.4651 10.0473 21.7263 9.99504 21.9901 9.99504C22.2539 9.99504 22.5151 10.0473 22.7586 10.1487C23.0021 10.2502 23.2231 10.3989 23.4089 10.5862C23.5962 10.7719 23.7449 10.9929 23.8463 11.2365C23.9478 11.48 24 11.7412 24 12.005C24 12.2688 23.9478 12.53 23.8463 12.7735C23.7449 13.017 23.5962 13.238 23.4089 13.4238Z" fill="#CBA869"/>
</svg>
