<svg width="25" height="25" viewBox="0 0 25 25" fill="none" xmlns="http://www.w3.org/2000/svg">
<path d="M9.792 13.464C9.54992 13.464 9.31327 13.5358 9.11198 13.6703C8.9107 13.8048 8.75381 13.9959 8.66117 14.2196C8.56853 14.4433 8.54429 14.6894 8.59152 14.9268C8.63875 15.1642 8.75532 15.3823 8.9265 15.5535C9.09768 15.7247 9.31578 15.8413 9.55321 15.8885C9.79064 15.9357 10.0367 15.9115 10.2604 15.8188C10.4841 15.7262 10.6752 15.5693 10.8097 15.368C10.9442 15.1667 11.016 14.9301 11.016 14.688C11.016 14.3634 10.887 14.052 10.6575 13.8225C10.428 13.593 10.1166 13.464 9.792 13.464ZM9.792 8.568C9.54992 8.568 9.31327 8.63979 9.11198 8.77428C8.9107 8.90878 8.75381 9.09994 8.66117 9.32359C8.56853 9.54725 8.54429 9.79336 8.59152 10.0308C8.63875 10.2682 8.75532 10.4863 8.9265 10.6575C9.09768 10.8287 9.31578 10.9453 9.55321 10.9925C9.79064 11.0397 10.0367 11.0155 10.2604 10.9228C10.4841 10.8302 10.6752 10.6733 10.8097 10.472C10.9442 10.2707 11.016 10.0341 11.016 9.792C11.016 9.46737 10.887 9.15605 10.6575 8.9265C10.428 8.69696 10.1166 8.568 9.792 8.568ZM14.688 8.568C14.4459 8.568 14.2093 8.63979 14.008 8.77428C13.8067 8.90878 13.6498 9.09994 13.5572 9.32359C13.4645 9.54725 13.4403 9.79336 13.4875 10.0308C13.5347 10.2682 13.6513 10.4863 13.8225 10.6575C13.9937 10.8287 14.2118 10.9453 14.4492 10.9925C14.6866 11.0397 14.9327 11.0155 15.1564 10.9228C15.3801 10.8302 15.5712 10.6733 15.7057 10.472C15.8402 10.2707 15.912 10.0341 15.912 9.792C15.912 9.46737 15.783 9.15605 15.5535 8.9265C15.324 8.69696 15.0126 8.568 14.688 8.568ZM23.256 13.464C23.5806 13.464 23.892 13.335 24.1215 13.1055C24.351 12.876 24.48 12.5646 24.48 12.24C24.48 11.9154 24.351 11.604 24.1215 11.3745C23.892 11.145 23.5806 11.016 23.256 11.016H20.808V8.568H23.256C23.5806 8.568 23.892 8.43904 24.1215 8.2095C24.351 7.97995 24.48 7.66862 24.48 7.344C24.48 7.01937 24.351 6.70805 24.1215 6.4785C23.892 6.24896 23.5806 6.12 23.256 6.12H20.5877C20.4049 5.60666 20.1102 5.14043 19.7249 4.75512C19.3396 4.36981 18.8733 4.07509 18.36 3.89232V1.224C18.36 0.899375 18.231 0.588046 18.0015 0.358501C17.772 0.128957 17.4606 0 17.136 0C16.8114 0 16.5 0.128957 16.2705 0.358501C16.041 0.588046 15.912 0.899375 15.912 1.224V3.672H13.464V1.224C13.464 0.899375 13.335 0.588046 13.1055 0.358501C12.876 0.128957 12.5646 0 12.24 0C11.9154 0 11.604 0.128957 11.3745 0.358501C11.145 0.588046 11.016 0.899375 11.016 1.224V3.672H8.568V1.224C8.568 0.899375 8.43904 0.588046 8.2095 0.358501C7.97995 0.128957 7.66862 0 7.344 0C7.01937 0 6.70805 0.128957 6.4785 0.358501C6.24896 0.588046 6.12 0.899375 6.12 1.224V3.89232C5.60666 4.07509 5.14043 4.36981 4.75512 4.75512C4.36981 5.14043 4.07509 5.60666 3.89232 6.12H1.224C0.899375 6.12 0.588046 6.24896 0.358501 6.4785C0.128957 6.70805 0 7.01937 0 7.344C0 7.66862 0.128957 7.97995 0.358501 8.2095C0.588046 8.43904 0.899375 8.568 1.224 8.568H3.672V11.016H1.224C0.899375 11.016 0.588046 11.145 0.358501 11.3745C0.128957 11.604 0 11.9154 0 12.24C0 12.5646 0.128957 12.876 0.358501 13.1055C0.588046 13.335 0.899375 13.464 1.224 13.464H3.672V15.912H1.224C0.899375 15.912 0.588046 16.041 0.358501 16.2705C0.128957 16.5 0 16.8114 0 17.136C0 17.4606 0.128957 17.772 0.358501 18.0015C0.588046 18.231 0.899375 18.36 1.224 18.36H3.89232C4.07509 18.8733 4.36981 19.3396 4.75512 19.7249C5.14043 20.1102 5.60666 20.4049 6.12 20.5877V23.256C6.12 23.5806 6.24896 23.892 6.4785 24.1215C6.70805 24.351 7.01937 24.48 7.344 24.48C7.66862 24.48 7.97995 24.351 8.2095 24.1215C8.43904 23.892 8.568 23.5806 8.568 23.256V20.808H11.016V23.256C11.016 23.5806 11.145 23.892 11.3745 24.1215C11.604 24.351 11.9154 24.48 12.24 24.48C12.5646 24.48 12.876 24.351 13.1055 24.1215C13.335 23.892 13.464 23.5806 13.464 23.256V20.808H15.912V23.256C15.912 23.5806 16.041 23.892 16.2705 24.1215C16.5 24.351 16.8114 24.48 17.136 24.48C17.4606 24.48 17.772 24.351 18.0015 24.1215C18.231 23.892 18.36 23.5806 18.36 23.256V20.5877C18.8733 20.4049 19.3396 20.1102 19.7249 19.7249C20.1102 19.3396 20.4049 18.8733 20.5877 18.36H23.256C23.5806 18.36 23.892 18.231 24.1215 18.0015C24.351 17.772 24.48 17.4606 24.48 17.136C24.48 16.8114 24.351 16.5 24.1215 16.2705C23.892 16.041 23.5806 15.912 23.256 15.912H20.808V13.464H23.256ZM18.36 17.136C18.36 17.4606 18.231 17.772 18.0015 18.0015C17.772 18.231 17.4606 18.36 17.136 18.36H7.344C7.01937 18.36 6.70805 18.231 6.4785 18.0015C6.24896 17.772 6.12 17.4606 6.12 17.136V7.344C6.12 7.01937 6.24896 6.70805 6.4785 6.4785C6.70805 6.24896 7.01937 6.12 7.344 6.12H17.136C17.4606 6.12 17.772 6.24896 18.0015 6.4785C18.231 6.70805 18.36 7.01937 18.36 7.344V17.136ZM14.688 13.464C14.4459 13.464 14.2093 13.5358 14.008 13.6703C13.8067 13.8048 13.6498 13.9959 13.5572 14.2196C13.4645 14.4433 13.4403 14.6894 13.4875 14.9268C13.5347 15.1642 13.6513 15.3823 13.8225 15.5535C13.9937 15.7247 14.2118 15.8413 14.4492 15.8885C14.6866 15.9357 14.9327 15.9115 15.1564 15.8188C15.3801 15.7262 15.5712 15.5693 15.7057 15.368C15.8402 15.1667 15.912 14.9301 15.912 14.688C15.912 14.3634 15.783 14.052 15.5535 13.8225C15.324 13.593 15.0126 13.464 14.688 13.464Z" fill="#B9BDC1"/>
</svg>
