<svg width="24" height="24" viewBox="0 0 24 24" fill="none" xmlns="http://www.w3.org/2000/svg">
<path d="M23.4089 10.5762L13.4171 0.58445C13.2271 0.402519 13.003 0.259906 12.7577 0.164796C12.2711 -0.0350752 11.7254 -0.0350752 11.2389 0.164796C10.9936 0.259906 10.7695 0.402519 10.5795 0.58445L0.587699 10.5762C0.401376 10.7625 0.253576 10.9837 0.152739 11.2272C0.051901 11.4706 0 11.7315 0 11.995C0 12.5272 0.211402 13.0376 0.587699 13.4139C0.963996 13.7902 1.47437 14.0016 2.00653 14.0016C2.53869 14.0016 3.04906 13.7902 3.42536 13.4139L9.99994 6.81931V21.9868C9.99994 22.5168 10.2105 23.0251 10.5852 23.3999C10.96 23.7746 11.4683 23.9852 11.9983 23.9852C12.5283 23.9852 13.0366 23.7746 13.4113 23.3999C13.7861 23.0251 13.9966 22.5168 13.9966 21.9868V6.81931L20.5712 13.4139C20.757 13.6012 20.978 13.7498 21.2215 13.8513C21.4651 13.9528 21.7263 14.005 21.9901 14.005C22.2539 14.005 22.5151 13.9528 22.7586 13.8513C23.0021 13.7498 23.2231 13.6012 23.4089 13.4139C23.5962 13.2281 23.7449 13.0071 23.8463 12.7636C23.9478 12.52 24 12.2589 24 11.995C24 11.7312 23.9478 11.47 23.8463 11.2265C23.7449 10.983 23.5962 10.762 23.4089 10.5762Z" fill="#CBA869"/>
</svg>
