<svg width="24" height="24" viewBox="0 0 24 24" fill="none" xmlns="http://www.w3.org/2000/svg">
<path d="M21.492 16.212H16.056C15.7377 16.212 15.4325 16.3384 15.2075 16.5635C14.9824 16.7885 14.856 17.0937 14.856 17.412C14.856 17.7303 14.9824 18.0355 15.2075 18.2605C15.4325 18.4856 15.7377 18.612 16.056 18.612H18.936C17.6123 19.9953 15.9053 20.9512 14.0342 21.3569C12.1631 21.7626 10.2135 21.5995 8.43573 20.8887C6.65801 20.1779 5.13344 18.9517 4.05791 17.3678C2.98238 15.7839 2.40501 13.9146 2.4 12C2.4 11.6817 2.27357 11.3765 2.04853 11.1515C1.82348 10.9264 1.51826 10.8 1.2 10.8C0.88174 10.8 0.576515 10.9264 0.351472 11.1515C0.126428 11.3765 0 11.6817 0 12C0.00634399 14.3434 0.698665 16.6336 1.99152 18.588C3.28438 20.5425 5.1212 22.0756 7.27529 22.9983C9.42938 23.9209 11.8065 24.1926 14.1132 23.78C16.42 23.3673 18.5554 22.2882 20.256 20.676V22.8C20.256 23.1183 20.3824 23.4235 20.6075 23.6485C20.8325 23.8736 21.1377 24 21.456 24C21.7743 24 22.0795 23.8736 22.3045 23.6485C22.5296 23.4235 22.656 23.1183 22.656 22.8V17.4C22.653 17.09 22.5302 16.7931 22.3132 16.5716C22.0962 16.3502 21.8019 16.2213 21.492 16.212ZM12 0C8.92366 0.00877463 5.96819 1.1987 3.744 3.324V1.2C3.744 0.88174 3.61757 0.576515 3.39253 0.351472C3.16748 0.126428 2.86226 0 2.544 0C2.22574 0 1.92052 0.126428 1.69547 0.351472C1.47043 0.576515 1.344 0.88174 1.344 1.2V6.6C1.344 6.91826 1.47043 7.22348 1.69547 7.44853C1.92052 7.67357 2.22574 7.8 2.544 7.8H7.944C8.26226 7.8 8.56748 7.67357 8.79253 7.44853C9.01757 7.22348 9.144 6.91826 9.144 6.6C9.144 6.28174 9.01757 5.97652 8.79253 5.75147C8.56748 5.52643 8.26226 5.4 7.944 5.4H5.064C6.38696 4.01744 8.09291 3.0618 9.96288 2.65573C11.8328 2.24966 13.7815 2.41169 15.5587 3.12104C17.3359 3.83038 18.8606 5.05465 19.9371 6.63672C21.0135 8.21879 21.5926 10.0865 21.6 12C21.6 12.3183 21.7264 12.6235 21.9515 12.8485C22.1765 13.0736 22.4817 13.2 22.8 13.2C23.1183 13.2 23.4235 13.0736 23.6485 12.8485C23.8736 12.6235 24 12.3183 24 12C24 10.4241 23.6896 8.86371 23.0866 7.4078C22.4835 5.95189 21.5996 4.62902 20.4853 3.51472C19.371 2.40042 18.0481 1.5165 16.5922 0.913446C15.1363 0.310389 13.5759 0 12 0Z" fill="#CBA869"/>
</svg>
