<svg width="24" height="24" viewBox="0 0 24 24" fill="none" xmlns="http://www.w3.org/2000/svg">
<path d="M1.2 10.8017C1.51826 10.8017 1.82348 10.9282 2.04853 11.1532C2.27357 11.3783 2.4 11.6835 2.4 12.0017C2.38571 14.2494 3.15565 16.4316 4.57721 18.1727C5.99877 19.9137 7.98296 21.1045 10.188 21.5401C12.3931 21.9756 14.6811 21.6285 16.6578 20.5587C18.6345 19.4888 20.1763 17.7631 21.0176 15.6788C21.8589 13.5945 21.947 11.2821 21.2669 9.13984C20.5867 6.99755 19.1807 5.15951 17.2912 3.94229C15.4016 2.72506 13.1467 2.20485 10.9149 2.47125C8.68305 2.73764 6.61397 3.77397 5.064 5.40175H7.944C8.26226 5.40175 8.56748 5.52818 8.79253 5.75322C9.01757 5.97826 9.144 6.28349 9.144 6.60175C9.144 6.92001 9.01757 7.22523 8.79253 7.45028C8.56748 7.67532 8.26226 7.80175 7.944 7.80175H2.508C2.18974 7.80175 1.88451 7.67532 1.65947 7.45028C1.43443 7.22523 1.308 6.92001 1.308 6.60175V1.20176C1.308 0.883497 1.43443 0.578272 1.65947 0.353229C1.88451 0.128185 2.18974 0.00175745 2.508 0.00175745C2.82626 0.00175745 3.13148 0.128185 3.35653 0.353229C3.58157 0.578272 3.708 0.883497 3.708 1.20176V3.32575C5.70639 1.41543 8.3031 0.2537 11.0592 0.0369523C13.8153 -0.179795 16.5616 0.56173 18.8341 2.13618C21.1065 3.71064 22.7657 6.02144 23.531 8.67797C24.2963 11.3345 24.1209 14.1738 23.0345 16.716C21.948 19.2581 20.0171 21.3471 17.5681 22.6299C15.1192 23.9127 12.3024 24.3106 9.59395 23.7563C6.8855 23.202 4.45152 21.7295 2.70344 19.5877C0.955356 17.446 0.000400746 14.7663 -7.62939e-07 12.0017C-7.62939e-07 11.6835 0.126427 11.3783 0.35147 11.1532C0.576514 10.9282 0.881739 10.8017 1.2 10.8017Z" fill="#CBA869"/>
</svg>
