<svg width="24" height="24" viewBox="0 0 24 24" fill="none" xmlns="http://www.w3.org/2000/svg">
<path d="M22.8 10.8018C22.4817 10.8018 22.1765 10.9282 21.9515 11.1532C21.7264 11.3783 21.6 11.6835 21.6 12.0018C21.6143 14.2494 20.8443 16.4317 19.4228 18.1727C18.0012 19.9137 16.017 21.1046 13.812 21.5401C11.6069 21.9756 9.31894 21.6285 7.34221 20.5587C5.36547 19.4888 3.82369 17.7631 2.98239 15.6789C2.14109 13.5946 2.05295 11.2821 2.73315 9.13985C3.41334 6.99756 4.81929 5.15952 6.70884 3.94229C8.5984 2.72507 10.8533 2.20485 13.0851 2.47125C15.3169 2.73765 17.386 3.77398 18.936 5.40176H16.056C15.7377 5.40176 15.4325 5.52818 15.2075 5.75323C14.9824 5.97827 14.856 6.2835 14.856 6.60176C14.856 6.92002 14.9824 7.22524 15.2075 7.45028C15.4325 7.67533 15.7377 7.80176 16.056 7.80176H21.492C21.8103 7.80176 22.1155 7.67533 22.3405 7.45028C22.5656 7.22524 22.692 6.92002 22.692 6.60176V1.20176C22.692 0.883497 22.5656 0.578273 22.3405 0.353229C22.1155 0.128186 21.8103 0.00175745 21.492 0.00175745C21.1737 0.00175745 20.8685 0.128186 20.6435 0.353229C20.4184 0.578273 20.292 0.883497 20.292 1.20176V3.32576C18.2936 1.41543 15.6969 0.2537 12.9408 0.0369523C10.1847 -0.179796 7.43836 0.561731 5.16591 2.13619C2.89346 3.71064 1.23433 6.02144 0.468998 8.67798C-0.296339 11.3345 -0.120944 14.1738 0.965533 16.716C2.05201 19.2581 3.98293 21.3472 6.43188 22.63C8.88083 23.9128 11.6976 24.3106 14.406 23.7563C17.1145 23.202 19.5485 21.7295 21.2966 19.5878C23.0446 17.446 23.9996 14.7663 24 12.0018C24 11.6835 23.8736 11.3783 23.6485 11.1532C23.4235 10.9282 23.1183 10.8018 22.8 10.8018Z" fill="#CBA869"/>
</svg>
